<svg xmlns="http://www.w3.org/2000/svg" viewBox="0 0 592.27 82.54"><defs><style>.cls-1{fill:#e84c2b}.cls-2{fill:#fff}</style></defs><path class="cls-1" d="M0,41.27H0A41.27,41.27,0,0,0,41.27,82.54h0V0H0Z"></path><path class="cls-1" d="M49.52,41.27h0A41.27,41.27,0,0,0,90.79,82.54h0V0H49.52Z"></path><path class="cls-1" d="M140.31,0A41.27,41.27,0,0,0,99.05,41.27h0V82.54h0a41.27,41.27,0,0,0,41.26-41.27h0V0Z"></path><polygon class="cls-2" points="230.41 18.3 220.71 53.16 210.49 18.3 201.15 18.3 190.93 53.16 181.29 18.3 171.45 18.3 186.29 65.96 195.43 65.96 205.72 31.07 216.01 65.96 225.16 65.96 239.99 18.3 230.41 18.3"></polygon><path class="cls-2" d="M265.21,35.05c-2.41-3.14-6.34-4.86-11.19-4.86-9.56,0-16.23,7.52-16.23,18.28S244.46,66.75,254,66.75c4.85,0,8.78-1.72,11.19-4.85V66h8V31h-8Zm-9.54,24c-5.46,0-9.27-4.36-9.27-10.6s3.81-10.59,9.27-10.59,9.27,4.25,9.27,10.59S261.22,59.07,255.67,59.07Z"></path><rect class="cls-2" x="280.34" y="15.66" width="8.61" height="50.3"></rect><polygon class="cls-2" points="329.66 30.92 318.73 30.92 304.67 47.01 304.67 15.66 296.06 15.66 296.06 65.96 304.67 65.96 304.67 57.54 310.27 51.51 320.22 65.96 330.53 65.96 316.01 45.79 329.66 30.92"></polygon><path class="cls-2" d="M346.12,30.13c-10.09,0-17.42,7.68-17.42,18.27,0,10.81,7.19,18.35,17.49,18.35a16.72,16.72,0,0,0,16.47-11.9l.15-.48h-8.68l-.1.23a7.93,7.93,0,0,1-7.64,4.66c-5.05,0-8.44-3-9.16-8.17h26v-.35s.07-1.22.07-2.47C363.34,37.76,356.1,30.13,346.12,30.13Zm0,7.15a8.33,8.33,0,0,1,8.62,7.25H337.39A8.58,8.58,0,0,1,346.12,37.28Z"></path><path class="cls-2" d="M385.9,30.59c-5.4,0-8.28,2.32-9.74,4.23v-3.9h-8V66h8.6V47.74c0-6.06,2.86-9.14,8.48-9.14a14.57,14.57,0,0,1,1.74.13l.42.06V30.68l-.34,0S386.23,30.59,385.9,30.59Z"></path><path class="cls-2" d="M424.61,37.68c-5.36-1.2-10-2.23-10-6.32,0-3.88,3.09-6.1,8.48-6.1s8.74,3,8.81,8v.37h8.61V33.2c-.22-9.8-6.89-15.89-17.42-15.89-9.94,0-17.15,6-17.15,14.25,0,10.84,8.4,12.65,15.82,14.25,5.59,1.21,10.41,2.25,10.41,7,0,4-3.46,6.16-9.74,6.16-5.81,0-9.33-2.93-9.67-8l0-.35h-8.66v.39c.26,7.71,5.12,15.95,18,15.95,11.54,0,19-5.67,19-14.45C441,41.36,431.93,39.32,424.61,37.68Z"></path><path class="cls-2" d="M471.74,35.05c-2.41-3.14-6.33-4.86-11.19-4.86-9.55,0-16.23,7.52-16.23,18.28S451,66.75,460.55,66.75c4.86,0,8.78-1.72,11.19-4.85V66h8V31h-8Zm-9.53,24c-5.46,0-9.28-4.36-9.28-10.6s3.82-10.59,9.28-10.59,9.27,4.25,9.27,10.59S467.75,59.07,462.21,59.07Z"></path><path class="cls-2" d="M505.09,30.13c-5.88,0-8.88,2.71-10.2,4.46V30.92h-8V66h8.61V45.7c0-5.07,2.88-8.09,7.69-8.09,5.32,0,6.43,4,6.43,7.42V66h8.61V44C518.21,35.46,513.18,30.13,505.09,30.13Z"></path><path class="cls-2" d="M549.64,34.65c-2.37-2.89-6.16-4.52-10.59-4.52-9.56,0-16.23,7.54-16.23,18.34s6.67,18.28,16.23,18.28c4.85,0,8.77-1.72,11.18-4.85V66h8V15.66h-8.61ZM540.7,59.07c-5.46,0-9.28-4.36-9.28-10.6s3.73-10.66,9.28-10.66S550,42.09,550,48.47,546.24,59.07,540.7,59.07Z"></path><path class="cls-2" d="M579.48,44.74c-3.85-.73-6.89-1.31-6.89-3.74s1.95-3.72,5.5-3.72c3.89,0,5.53,2.39,5.78,4.62l0,.34h8.27l0-.4c-.38-5.4-4.24-11.71-13.85-11.71-9.18,0-14,5.6-14,11.14,0,8.41,6.94,9.67,12.51,10.69,4,.73,7.18,1.31,7.18,4,0,2.21-2.24,3.53-6,3.53-4.2,0-6.82-1.85-7-4.94l0-.35h-8.35l0,.4c.23,3.64,2.14,12.11,14.9,12.11,8.94,0,14.71-4.35,14.71-11.08C592.27,47.17,585.18,45.82,579.48,44.74Z"></path></svg>
